<svg width="200" height="200" viewBox="0 0 200 200" fill="none" xmlns="http://www.w3.org/2000/svg">
<rect width="200" height="200" rx="18" fill="#FF8AAE"/>
<path d="M156.801 181.718L104.601 181.937L54.7739 182.147C37.9593 170.878 32.1677 155.716 41.8247 135.09C33.3727 120.572 27.7398 106.779 30.1865 95.0487C30.7341 92.4244 33.0214 90.4122 35.8412 90.0696C55.2349 87.7101 68.503 93.5162 68.503 93.5162L129.452 90.2985C129.452 90.2985 142.694 81.8822 162.224 81.3838C163.465 81.3527 164.65 81.672 165.673 82.27V82.2747C166.988 83.0363 168.023 84.2651 168.541 85.7742C172.652 97.8069 169.079 113.269 162.808 129.938C175.345 150.262 171.808 167.199 156.801 181.718Z" fill="white"/>
<path d="M165.361 134.474C164.597 132.981 163.754 131.47 162.808 129.937C169.08 113.269 172.654 97.8057 168.541 85.7743C168.529 85.7416 168.515 85.7105 168.504 85.6778C166.705 83.971 164.72 82.5446 162.599 81.3876C162.474 81.3829 162.35 81.3798 162.225 81.3829C142.694 81.8812 129.453 90.2966 129.453 90.2966L119.002 90.8494C106.514 104.555 105.216 124.377 116.518 136.5C128.511 149.362 150.142 148.687 164.832 134.99C165.014 134.822 165.184 134.646 165.361 134.474Z" fill="#8B4513"/>
<path d="M133.365 88.2113L129.927 88.3535C129.356 90.3385 129.078 92.3741 128.819 93.8526C128.316 96.6655 127.582 99.5348 125.834 101.791C124.081 104.044 121.086 105.55 118.335 104.794C116.97 104.418 115.76 103.511 115.026 102.301C114.259 101.037 114.026 99.5582 113.825 98.0797C113.747 97.5226 113.679 96.9713 113.584 96.4278C113.319 94.9026 112.734 93.2819 111.63 92.2826C111.283 91.967 110.881 91.7118 110.425 91.5482C108.649 90.8956 106.66 91.7897 105.217 93.017C103.779 94.2461 102.634 95.8162 101.082 96.8934C99.5257 97.9745 97.2982 98.4537 95.7917 97.3083C94.628 96.4317 94.1172 94.7701 92.9533 93.9987C92.794 93.8896 92.6204 93.802 92.4285 93.7338C92.1726 93.6422 91.9123 93.5974 91.6618 93.5974C90.3699 93.5916 89.1195 94.6376 88.3203 95.7519C86.7456 97.9511 86.4397 100.643 85.9788 103.31C84.0484 114.528 74.2354 118.471 70.1141 102.963C69.3561 100.119 68.7908 96.6187 68.5035 92.3936L60.8761 91.2112C49.0598 86.2712 48.0967 71.3245 60.8761 66.8734C56.7688 63.7567 53.9979 52.1546 69.548 48.8451C65.29 44.4329 65.6274 34.5276 77.6128 32.7199C95.0435 34.6503 97.0475 26.0247 104.35 17.6953C107.677 20.2471 109.115 23.0853 109.115 26.1397V26.1533C109.111 28.2474 108.431 30.4427 107.226 32.7199C119.348 32.5796 121.274 42.2999 117.777 47.3393C133.655 48.1068 132.785 60.001 129.234 63.7431C142.562 66.0806 144.237 81.4383 133.365 88.2113Z" fill="#FFC1CC"/>
<path d="M156.802 183.314C156.385 183.314 155.966 183.151 155.653 182.827C155.04 182.193 155.057 181.182 155.69 180.568C171.062 165.699 172.946 149.411 161.449 130.774C161.191 130.354 161.141 129.835 161.315 129.373C168.721 109.683 170.485 96.3968 167.03 86.2925C166.332 84.2579 164.431 82.938 162.265 82.9803C143.446 83.4616 130.438 91.5625 130.309 91.644C129.564 92.1159 128.577 91.8949 128.105 91.1503C127.632 90.4057 127.853 89.4213 128.596 88.9479C129.152 88.5936 142.437 80.2905 162.183 79.7857C165.752 79.7058 168.901 81.8956 170.052 85.2595C173.718 95.983 172.033 109.733 164.578 129.768C176.35 149.335 174.11 167.196 157.912 182.864C157.603 183.165 157.201 183.314 156.802 183.314Z" fill="#000072"/>
<path d="M151.47 112.754L145.433 103.228C145.199 102.861 145.042 102.466 144.951 102.062C145.042 102.466 145.201 102.86 145.434 103.228L151.47 112.754ZM161.429 96.2038C161.354 95.1985 161.236 94.1843 161.071 93.1611C161.237 94.1843 161.354 95.2 161.429 96.2038Z" fill="#B25D22"/>
<path d="M47.1637 122.594C46.6415 122.594 46.1209 122.374 45.7826 121.917C42.0847 116.911 39.5626 111.491 38.8055 105.452C39.5635 111.491 42.0847 116.909 45.7826 121.917C46.1192 122.373 46.6388 122.591 47.1602 122.591C47.4083 122.591 47.6563 122.542 47.885 122.445C47.8858 122.446 47.8867 122.446 47.8867 122.448C47.658 122.544 47.4109 122.594 47.1637 122.594ZM55.4677 105.121C55.2783 104.687 54.9945 104.292 54.6238 103.957C54.9945 104.29 55.2783 104.687 55.4677 105.121ZM38.603 100.111C38.603 100.111 38.603 100.111 38.603 100.11C38.603 100.11 39.9341 99.7589 42.0742 99.7589C42.2319 99.7589 42.3948 99.7603 42.5614 99.7646C42.3966 99.7603 42.2362 99.7589 42.0802 99.7589C39.9744 99.7589 38.6495 100.1 38.603 100.111Z" fill="#B2B2D4"/>
<path d="M159.777 93.7552C157.573 93.7808 152.131 94.4228 146.938 99.58C146.146 100.368 146.003 101.566 146.589 102.495L155.164 116.026C155.253 116.169 155.379 116.193 155.477 116.188C155.568 116.184 155.693 116.146 155.767 115.999C159.565 108.411 160.881 101.121 159.777 93.7552ZM155.451 118.928C154.388 118.928 153.424 118.399 152.85 117.494L144.277 103.96C142.996 101.938 143.296 99.338 145.009 97.6389C152.567 90.1301 160.768 91.0322 161.112 91.0743C161.708 91.1465 162.186 91.5991 162.294 92.1885C163.807 100.526 162.473 108.714 158.216 117.224C157.713 118.23 156.74 118.866 155.614 118.924C155.559 118.925 155.505 118.928 155.451 118.928Z" fill="#000072"/>
<path d="M54.7712 183.743C54.4653 183.743 54.156 183.656 53.8835 183.473C35.6931 171.282 31.0337 155.036 40.0299 135.176C29.956 117.709 26.4366 105.209 28.6221 94.7234C29.3109 91.4208 32.1353 88.9128 35.6501 88.4849C55.2506 86.0992 68.5862 91.809 69.1444 92.0535C69.9524 92.4065 70.3213 93.348 69.9672 94.1564C69.614 94.9634 68.6729 95.3332 67.865 94.9802C67.7362 94.9236 54.7177 89.3805 36.0357 91.6561C33.8817 91.919 32.1589 93.4122 31.7507 95.3745C29.707 105.175 33.2412 117.176 43.2074 134.288C43.4721 134.74 43.4966 135.294 43.2741 135.769C34.4602 154.59 38.5122 169.326 55.6615 180.819C56.395 181.311 56.5904 182.303 56.0997 183.035C55.7911 183.495 55.2856 183.743 54.7712 183.743Z" fill="#000072"/>
<path d="M39.9374 101.268C39.8594 108.178 42.1387 114.678 46.8839 121.104C46.9759 121.227 47.1416 121.227 47.2064 121.221C47.2616 121.215 47.4474 121.186 47.5236 121.028L54.1775 107.263C54.6024 106.385 54.3133 105.37 53.4755 104.792C47.6988 100.809 42.1396 100.989 39.9374 101.268ZM47.1539 123.962C46.168 123.962 45.26 123.514 44.6808 122.731C39.2976 115.442 36.8616 108.021 37.234 100.049C37.262 99.4506 37.6739 98.9413 38.2522 98.7877C38.5861 98.7014 46.5448 96.6878 55.0291 102.537C56.9746 103.879 57.6538 106.368 56.6433 108.456L49.9895 122.22C49.5163 123.198 48.5708 123.843 47.4604 123.947C47.358 123.956 47.2554 123.962 47.1539 123.962Z" fill="#000072"/>
<path d="M78.7189 114.187C78.5936 114.187 78.4683 114.184 78.3422 114.176C71.9679 113.8 67.6933 104.609 66.909 89.5899C66.8625 88.7082 67.539 87.9557 68.4205 87.9106C69.3048 87.8546 70.0532 88.5419 70.0987 89.4219C70.9706 106.103 75.8088 110.825 78.5305 110.987C81.1313 111.125 83.5875 107.798 84.4053 103.041C84.452 102.769 84.4971 102.496 84.5422 102.223C84.9604 99.7029 85.3927 97.0954 87.0222 94.8221C88.3252 93.006 90.5705 91.3702 92.9697 92.2332C94.3598 92.7323 95.1248 93.8689 95.7405 94.7832C96.0826 95.2917 96.406 95.7721 96.7559 96.038C97.622 96.6942 99.1302 96.307 100.169 95.584C100.948 95.0429 101.641 94.3214 102.375 93.558C102.94 92.9702 103.523 92.3638 104.181 91.8025C106.364 89.9413 108.906 89.2867 110.977 90.0486C113.126 90.8384 114.611 93.0075 115.157 96.1531C115.241 96.6413 115.309 97.1373 115.376 97.6333C115.57 99.0701 115.754 100.428 116.39 101.471C116.917 102.337 117.778 102.987 118.758 103.254C120.975 103.864 123.326 102.415 124.568 100.813C126.156 98.7684 126.812 96.0054 127.244 93.5735C127.297 93.2719 127.35 92.9484 127.408 92.6064C127.9 89.6567 128.644 85.1973 131.214 82.4451C131.816 81.7998 132.826 81.7641 133.472 82.3674C134.117 82.9676 134.151 83.9798 133.548 84.6251C131.637 86.6729 131.013 90.4062 130.559 93.1319C130.5 93.4864 130.444 93.8208 130.39 94.1317C129.888 96.9477 129.106 100.177 127.093 102.771C125.158 105.266 121.566 107.341 117.912 106.336C116.156 105.854 114.606 104.686 113.659 103.131C112.678 101.517 112.429 99.6811 112.21 98.0609C112.148 97.6038 112.087 97.1482 112.009 96.7004C111.849 95.7784 111.321 93.5797 109.873 93.048C108.725 92.6266 107.251 93.3838 106.255 94.2328C105.717 94.6915 105.213 95.217 104.678 95.7721C103.87 96.6133 103.031 97.4856 101.993 98.2071C100.003 99.5894 97.0156 100.244 94.8263 98.5834C94.0519 97.9972 93.5404 97.2369 93.0894 96.5651C92.6634 95.9323 92.2933 95.385 91.8906 95.2404C91.2516 95.0118 90.244 95.8126 89.6189 96.6849C88.4216 98.3533 88.0687 100.487 87.6939 102.746C87.6473 103.026 87.6007 103.304 87.5525 103.582C86.4531 109.987 82.9297 114.187 78.7189 114.187Z" fill="#000072"/>
<path d="M60.8759 92.8112C60.6708 92.8112 60.4624 92.7701 60.2608 92.6878C53.8751 90.0178 49.8704 84.3195 50.0578 78.1686C50.213 73.052 53.1934 68.7405 58.1533 66.2861C56.5662 64.0392 55.577 60.7248 56.3245 57.379C56.9133 54.7443 59.0804 50.2193 66.8646 47.8824C65.4074 45.2771 65.0481 42.0312 66.0137 39.1791C66.8568 36.6894 69.4523 32.3368 77.3734 31.1399C77.5109 31.1203 77.6494 31.1183 77.7879 31.132C90.978 32.5973 94.4763 27.9293 99.3187 21.4728C100.496 19.9038 101.713 18.2818 103.149 16.6422C103.704 16.0095 104.655 15.9155 105.322 16.4287C110.501 20.3994 111.958 25.371 109.672 31.23C115.908 31.8627 118.614 35.1654 119.711 37.232C121.123 39.8921 121.29 43.1537 120.27 45.9588C128.329 47.0146 131.195 51.1322 132.2 53.6395C133.477 56.8207 133.03 60.2527 131.826 62.7248C137.16 64.3742 140.836 68.2547 141.843 73.436C143.042 79.5986 140.045 85.9316 134.208 89.5692C133.457 90.0355 132.474 89.8082 132.008 89.0599C131.54 88.3097 131.769 87.3244 132.517 86.8582C137.22 83.9277 139.649 78.8973 138.707 74.0452C137.824 69.4947 134.178 66.2312 128.958 65.3144C128.378 65.2145 127.9 64.8012 127.716 64.2429C127.532 63.6827 127.671 63.0676 128.076 62.6406C129.559 61.0793 130.4 57.7297 129.234 54.8286C127.808 51.2693 123.82 49.2321 117.7 48.9382C117.12 48.9088 116.6 48.57 116.344 48.0489C116.087 47.5279 116.133 46.9088 116.464 46.4309C117.994 44.2271 118.164 41.1321 116.889 38.7286C115.377 35.8784 112.039 34.3172 107.477 34.3172C107.399 34.3172 107.322 34.3172 107.244 34.3191C106.674 34.3211 106.155 34.0332 105.861 33.5532C105.568 33.0713 105.55 32.47 105.815 31.9724C108.453 26.9969 108.075 23.2299 104.541 19.9429C103.593 21.0987 102.723 22.2583 101.875 23.3906C97.0456 29.8294 92.4791 35.9137 77.6494 34.3309C73.1303 35.0596 70.0764 37.1399 69.0397 40.2036C68.1676 42.7795 68.8337 45.806 70.6975 47.7374C71.1007 48.1547 71.2462 48.758 71.0762 49.3124C70.9071 49.8687 70.4487 50.2879 69.8809 50.4094C63.8887 51.6826 60.2792 54.3349 59.4422 58.0764C58.7605 61.1283 60.1266 64.2997 61.8424 65.6024C62.3114 65.9589 62.547 66.5446 62.4542 67.1244C62.3621 67.7062 61.9582 68.1901 61.4027 68.384C56.434 70.1137 53.3869 73.8081 53.2512 78.2665C53.1049 83.0814 56.3394 87.5849 61.493 89.7377C62.3069 90.0785 62.6908 91.0149 62.3508 91.8298C62.0939 92.441 61.5008 92.8112 60.8759 92.8112Z" fill="#000072"/>
<path d="M69.5487 47.2492L89.7827 48.3128C90.0772 48.3287 90.3031 48.5795 90.2874 48.8746C90.2726 49.1484 90.0509 49.3639 89.7827 49.3781L69.5487 50.4434C68.6662 50.4893 67.9135 49.8127 67.867 48.9293C67.8205 48.0478 68.4981 47.2952 69.3805 47.2492C69.4365 47.2457 69.4934 47.2457 69.5487 47.2492Z" fill="#000072"/>
<path d="M117.959 48.9289L104.754 49.3749C104.458 49.3856 104.211 49.1546 104.201 48.8596C104.193 48.5931 104.379 48.3674 104.631 48.3177L117.593 45.7554C118.462 45.5831 119.306 46.1481 119.477 47.017C119.649 47.8841 119.084 48.7281 118.215 48.8987C118.132 48.9165 118.041 48.9253 117.959 48.9289Z" fill="#000072"/>
<path d="M60.7169 65.2852L61.305 65.2819L61.7624 65.2951L62.6747 65.3217L64.486 65.3813L68.1024 65.5104L75.3311 65.782L89.7841 66.3434C90.0786 66.3533 90.3073 66.6017 90.2958 66.8965C90.2854 67.1764 90.0567 67.3966 89.7815 67.4082L75.3276 67.9116L68.1034 68.1733L64.493 68.3091L62.6912 68.382L61.7967 68.4217L61.3513 68.4432L61.0351 68.4648L60.8353 68.478C59.9555 68.5376 59.1931 67.8719 59.1326 66.9926C59.073 66.1116 59.7381 65.3481 60.6189 65.2885C60.6504 65.2869 60.6863 65.2852 60.7169 65.2852Z" fill="#000072"/>
<path d="M129.389 65.3317L105.657 66.5669C105.364 66.582 105.112 66.3574 105.097 66.0624C105.082 65.7859 105.285 65.5462 105.553 65.5077L129.079 62.1507C129.954 62.0267 130.763 62.635 130.887 63.5082C131.013 64.3831 130.405 65.1926 129.531 65.3166C129.484 65.3233 129.436 65.3284 129.389 65.3317Z" fill="#000072"/>
<path d="M104.391 163.178C100.621 163.178 97.7006 159.883 98.1524 156.135L99.0791 148.477C100.754 146.829 102.43 145.98 104.118 145.911C103.352 146.336 102.584 146.924 101.816 147.678L100.891 155.337C100.439 159.085 103.36 162.379 107.13 162.379C107.249 162.379 107.368 162.375 107.486 162.37C106.578 162.881 105.524 163.178 104.391 163.178Z" fill="white"/>
<path d="M78.2263 113.205C75.2026 113.205 72.0383 110.203 70.1138 102.963C70.3102 103.068 70.502 103.191 70.694 103.324C71.4546 103.849 72.1416 104.215 72.7638 104.447C74.5917 109.215 76.9286 110.891 78.5314 110.986C78.5835 110.988 78.6356 110.991 78.6876 110.991C81.2309 110.991 83.6046 107.702 84.4052 103.041C84.4514 102.768 84.496 102.495 84.5422 102.222C84.9603 99.7028 85.3919 97.0955 87.023 94.8215C87.6272 93.9777 88.4367 93.1726 89.3713 92.6383C90.1214 92.9256 90.8893 93.253 91.6616 93.5982C91.6587 93.5982 91.6557 93.5982 91.6527 93.5982C90.9547 93.5982 90.2702 93.9033 89.6615 94.3587C89.413 94.5298 89.1659 94.7501 88.9234 95.0224C88.7016 95.2546 88.4992 95.5016 88.3207 95.7516C87.1926 97.3276 86.7149 99.1551 86.3667 101.045C85.9574 102.678 85.755 103.959 85.755 103.959C85.755 103.959 85.7446 104.254 85.6866 104.716C85.2356 106.56 84.563 108.169 83.74 109.473C83.5972 109.611 83.4454 109.739 83.2832 109.854C83.2832 109.854 83.3338 109.886 83.4275 109.943C81.9795 112.014 80.1312 113.205 78.2263 113.205Z" fill="#000072"/>
<path d="M97.8775 97.9691C97.126 97.9691 96.4001 97.7703 95.7917 97.308C95.3971 96.8261 95.0055 96.3788 94.62 95.9797C94.1125 95.2403 93.6486 94.4601 92.9529 93.9993C93.2556 94.055 93.5538 94.0791 93.8504 94.0791C94.2842 94.0791 94.7104 94.0234 95.132 93.9225C95.3579 94.2132 95.5552 94.5068 95.7405 94.7809C96.0823 95.2915 96.4076 95.7719 96.757 96.0369C97.0672 96.2719 97.4588 96.3728 97.882 96.3728C98.641 96.3728 99.5024 96.0475 100.17 95.5821C100.948 95.0415 101.642 94.3201 102.376 93.5566C102.939 92.9692 103.523 92.3623 104.182 91.8006C105.764 90.4512 107.537 89.7359 109.181 89.7359C109.493 89.7359 109.799 89.7615 110.099 89.8127C110.623 90.516 111.108 91.3066 111.543 92.1198C111.205 91.7735 110.833 91.5671 110.425 91.5476C110.013 91.397 109.59 91.3292 109.165 91.3292C107.755 91.3292 106.325 92.0747 105.218 93.0174C104.74 93.4255 104.294 93.8698 103.856 94.3231C102.728 95.4014 100.508 97.3336 98.5491 97.9179C98.3247 97.951 98.1004 97.9691 97.8775 97.9691Z" fill="#000072"/>
<path d="M131.611 88.2849C131.744 87.8657 131.892 87.4542 132.056 87.0594C132.255 86.9619 132.46 86.8613 132.674 86.7591C132.622 86.7927 132.57 86.8262 132.517 86.8582C132.012 87.1722 131.744 87.724 131.765 88.2788L131.611 88.2849Z" fill="#000072"/>
<path d="M119.818 104.991C119.322 104.991 118.825 104.928 118.336 104.793C116.97 104.42 115.761 103.511 115.026 102.3C114.631 101.649 114.377 100.941 114.198 100.206C114.1 99.5608 113.977 98.8382 113.828 98.0908C113.827 98.0862 113.825 98.0831 113.825 98.0784C114.007 99.0682 114.816 99.7612 115.8 100.025C115.941 100.549 116.126 101.037 116.39 101.469C116.917 102.336 117.779 102.985 118.758 103.254C119.113 103.351 119.47 103.396 119.826 103.396C121.698 103.396 123.526 102.159 124.57 100.812C126.156 98.7667 126.812 96.004 127.244 93.5722C127.298 93.2708 127.351 92.9476 127.409 92.6058C127.901 89.655 128.646 85.197 131.214 82.4436C131.529 82.1064 131.955 81.9355 132.383 81.9355C132.773 81.9355 133.164 82.0784 133.472 82.3659C134.118 82.9672 134.152 83.9788 133.549 84.6236C132.929 85.2887 132.445 86.1309 132.058 87.0585C131.893 87.4532 131.745 87.865 131.612 88.2829L129.927 88.3529C129.357 90.3387 129.079 92.3742 128.818 93.8519C128.316 96.6644 127.581 99.5359 125.833 101.791C124.393 103.643 122.113 104.991 119.818 104.991Z" fill="#000072"/>
<path d="M131.767 88.2775C131.744 87.7239 132.014 87.1721 132.518 86.8574C132.571 86.8251 132.622 86.791 132.675 86.7588C137.275 83.8142 139.64 78.8427 138.709 74.0437C137.834 69.5424 134.257 66.3002 129.126 65.3445L129.389 65.3313C129.435 65.3294 129.484 65.3237 129.53 65.318C130.199 65.2213 130.711 64.7264 130.861 64.1083C141.875 67.1401 143.578 79.8191 135.334 86.7815C134.308 87.2347 133.299 87.7239 132.319 88.2548L131.767 88.2775ZM130.197 62.4075C129.941 62.235 129.632 62.1345 129.308 62.1345C129.232 62.1345 129.156 62.1402 129.078 62.1516L128.407 62.2464C129.678 60.5645 130.309 57.5062 129.236 54.827C127.808 51.27 123.821 49.2317 117.704 48.9378L117.958 48.9284C118.041 48.9246 118.132 48.9151 118.216 48.898C118.931 48.7577 119.439 48.1624 119.501 47.4722C132.137 48.8336 132.685 57.9461 130.197 62.4075ZM116.788 45.9136C118.011 43.7597 118.068 40.9478 116.889 38.7275C115.377 35.8796 112.039 34.3172 107.477 34.3172C107.399 34.3172 107.322 34.3172 107.244 34.3172C107.243 34.3172 107.24 34.3172 107.238 34.3172C106.67 34.3172 106.154 34.0309 105.861 33.5512C105.568 33.0696 105.55 32.4705 105.815 31.9718C105.946 31.7253 106.07 31.4807 106.186 31.238C108.249 28.9722 108.963 26.7045 109.115 26.1527C109.111 28.2479 108.431 30.4436 107.226 32.7207C107.313 32.7188 107.399 32.7188 107.486 32.7188C118.297 32.7188 120.827 40.6729 118.586 45.8757C118.377 45.7771 118.146 45.724 117.907 45.724C117.804 45.724 117.7 45.7335 117.594 45.7543L116.788 45.9136Z" fill="#000072"/>
<path d="M104.734 49.3759C104.449 49.3759 104.211 49.1486 104.201 48.8591C104.193 48.5945 104.379 48.3672 104.631 48.3174L116.788 45.9145L117.594 45.7547C117.699 45.7351 117.804 45.7245 117.907 45.7245C118.147 45.7245 118.378 45.7777 118.585 45.8772C118.362 46.3958 118.092 46.886 117.777 47.3406C118.376 47.369 118.95 47.4134 119.5 47.4738C119.438 48.1629 118.93 48.7579 118.216 48.9C118.133 48.9159 118.04 48.9266 117.959 48.9284L117.703 48.9373L104.754 49.3759C104.747 49.3759 104.742 49.3759 104.734 49.3759Z" fill="#000072"/>
<path d="M108.995 66.0387H105.097C105.095 65.7723 105.293 65.5461 105.554 65.5076L128.409 62.2474L129.079 62.152C129.156 62.1402 129.232 62.1352 129.307 62.1352C129.632 62.1352 129.94 62.234 130.198 62.4083C129.912 62.9209 129.587 63.3716 129.233 63.7435C129.798 63.8424 130.339 63.9647 130.862 64.1071C130.713 64.7269 130.2 65.2228 129.531 65.3166C129.485 65.3233 129.436 65.3284 129.389 65.3317L129.126 65.3451L119.446 65.8494C118.468 65.2027 117.777 64.8894 117.777 64.8894L108.995 66.0387Z" fill="#000072"/>
<path d="M61.9417 110.462C61.4202 94.7357 42.8127 93.1737 35.4375 93.1737C34.2414 93.1737 33.3406 93.2157 32.8604 93.2441C33.649 92.3905 34.7681 91.8094 36.0361 91.6552C39.2162 91.2673 42.2307 91.1071 45.0463 91.1071C56.916 91.1071 65.2383 93.966 67.344 94.7717C67.486 95.9682 67.6534 97.1154 67.8462 98.2146C65.3434 100.286 63.4875 104.79 61.9417 110.462Z" fill="#B2B2D4"/>
<path d="M67.3438 94.7719C65.2381 93.9671 56.9157 91.1071 45.0462 91.1071C42.2305 91.1071 39.216 91.2686 36.036 91.6552C34.7679 91.8107 33.6489 92.3921 32.8602 93.2438C32.6052 93.2589 32.4685 93.271 32.4685 93.271C34.08 90.1059 38.1689 89.0745 42.9229 89.0745C47.5989 89.0745 52.918 90.0742 57.1445 91.0255C58.104 91.6628 59.1459 92.22 60.2606 92.6866C60.4622 92.7696 60.6708 92.8104 60.8758 92.8104C61.3578 92.8104 61.8214 92.5899 62.1254 92.2094C62.7249 92.3528 63.241 92.4721 63.6572 92.5612C65.1696 92.8768 66.3431 93.3767 67.2491 93.9324C67.279 94.2147 67.3106 94.4956 67.3438 94.7719Z" fill="#000072"/>
<path d="M67.8461 98.2148C67.6532 97.1164 67.486 95.9678 67.344 94.7717C67.3107 94.4949 67.2792 94.2137 67.2493 93.9324C69.5339 95.3313 70.114 97.0735 70.114 97.0735C69.3016 97.2437 68.548 97.633 67.8461 98.2148Z" fill="#000072"/>
<path d="M60.876 92.8099C60.6711 92.8099 60.4624 92.7695 60.2609 92.6856C59.1462 92.2197 58.1043 91.6624 57.1448 91.0257C59.0936 91.4632 60.8113 91.8931 62.1257 92.2092C61.8216 92.5897 61.3581 92.8099 60.876 92.8099Z" fill="#000072"/>
<path d="M130.879 91.3071C131.04 90.4615 131.231 89.5801 131.479 88.7237C131.585 88.6629 131.692 88.6022 131.799 88.5415C131.837 88.719 131.905 88.8949 132.008 89.0585C132.31 89.5443 132.83 89.8106 133.365 89.8106C133.653 89.8106 133.944 89.7327 134.209 89.5692C136.06 88.4138 137.627 86.9873 138.863 85.3818C148.84 81.8375 159.048 81.3812 159.048 81.3812C155.157 82.2455 152.164 83.2826 149.817 84.4272C139.783 86.5061 132.848 90.1812 130.879 91.3071Z" fill="#000072"/>
<path d="M128.932 99.5352C128.108 99.0151 127.61 98.5342 127.61 98.5342C130.71 95.5809 129.531 89.9328 129.531 89.9328C130.161 89.5094 130.813 89.1071 131.478 88.7246C131.23 89.5805 131.038 90.4621 130.878 91.3074C130.757 91.944 130.656 92.5595 130.559 93.1326C130.501 93.4865 130.444 93.8206 130.39 94.1322C130.083 95.8591 129.67 97.7403 128.932 99.5352Z" fill="#000072"/>
<path d="M133.364 89.8102C132.831 89.8117 132.311 89.5435 132.008 89.0576C131.905 88.8951 131.838 88.7189 131.799 88.5411C131.973 88.4445 132.146 88.348 132.319 88.2545L133.364 88.2116C134.074 87.7686 134.73 87.2904 135.334 86.7815C136.496 86.2681 137.679 85.8037 138.865 85.3822C137.627 86.9869 136.062 88.4139 134.209 89.568C133.945 89.732 133.654 89.8102 133.364 89.8102Z" fill="#000072"/>
<path d="M132.318 88.2558C133.3 87.7254 134.309 87.2346 135.333 86.7819C134.729 87.291 134.074 87.7696 133.364 88.2116L132.318 88.2558Z" fill="#000072"/>
<path d="M155.204 181.725C155.203 181.304 155.366 180.883 155.692 180.568C169.718 166.999 172.513 152.246 164.157 135.607C163.357 134.012 162.454 132.404 161.45 130.775C161.191 130.354 161.141 129.836 161.315 129.373C168.722 109.683 170.485 96.3966 167.03 86.2931C166.79 85.5948 166.41 84.9803 165.926 84.4775C165.801 83.1399 165.685 82.3485 165.674 82.274C166.988 83.0359 168.025 84.2633 168.54 85.7732C172.652 97.8056 169.079 113.269 162.808 129.938C175.275 150.148 171.847 167.01 157.053 181.474C156.621 181.57 156.187 181.653 155.749 181.722L155.204 181.725Z" fill="#000072"/>
<path d="M84.7881 110.66C84.1453 110.364 83.6565 110.083 83.4277 109.944C83.5339 109.793 83.637 109.636 83.7387 109.474C85.0901 108.16 85.5415 105.894 85.6865 104.717C85.7972 104.263 85.8958 103.794 85.978 103.311C86.1096 102.554 86.2277 101.795 86.3667 101.046C86.8795 98.9964 87.7196 96.3892 88.8961 95.0543C88.9036 95.0438 88.914 95.0334 88.923 95.0229C89.1517 94.7822 89.3999 94.558 89.6615 94.3607C90.1249 94.0422 90.5973 93.8972 91.0787 93.8972C92.2103 93.8972 93.3913 94.706 94.6201 95.9811C94.9609 96.4774 95.3227 96.9573 95.7906 97.3086C96.2465 97.8647 96.8311 98.0919 97.4813 98.0919C97.8222 98.0904 98.1825 98.0292 98.5487 97.9185C99.4456 97.7885 100.34 97.4088 101.081 96.893C102.119 96.174 102.974 95.2352 103.856 94.3248C104.321 93.8793 104.6 93.5818 104.6 93.5818C104.6 93.5818 107.152 91.5428 110.133 91.5428C110.23 91.5428 110.327 91.5443 110.424 91.5487C110.88 91.7132 111.282 91.9688 111.629 92.2842C111.601 92.2289 111.572 92.1751 111.542 92.1198C112.629 93.232 113.362 95.7763 113.827 98.0919C113.922 98.805 114.028 99.5166 114.196 100.206C114.416 101.657 114.51 102.704 114.51 102.704C114.51 102.704 113.683 101.373 112.504 99.9426C112.378 99.3013 112.291 98.666 112.209 98.062C112.148 97.6046 112.087 97.1487 112.009 96.7002C111.849 95.7793 111.321 93.5788 109.874 93.0481C109.648 92.9644 109.409 92.927 109.166 92.927C108.164 92.927 107.056 93.5504 106.255 94.2336C105.717 94.691 105.213 95.2157 104.679 95.7719C103.869 96.6135 103.032 97.485 101.993 98.207C100.836 99.0113 99.3425 99.5689 97.864 99.5689C96.7997 99.5689 95.7428 99.2804 94.8249 98.5838C94.052 97.9978 93.5408 97.2369 93.0893 96.5656C92.6633 95.9318 92.294 95.3847 91.8904 95.2397C91.8141 95.2127 91.7349 95.2008 91.6512 95.2008C91.0204 95.2008 90.1698 95.9154 89.6181 96.6837C88.4222 98.3536 88.0679 100.487 87.6942 102.746C87.6479 103.025 87.6015 103.303 87.5537 103.583C87.0618 106.439 86.0902 108.858 84.7881 110.66Z" fill="#000072"/>
<path d="M83.4278 109.943C83.3332 109.886 83.283 109.854 83.283 109.854C83.4455 109.739 83.5977 109.612 83.7395 109.473C83.6376 109.635 83.5342 109.792 83.4278 109.943ZM85.6871 104.716C85.7447 104.254 85.755 103.958 85.755 103.958C85.755 103.958 85.9575 102.679 86.3668 101.044C86.2279 101.793 86.1096 102.553 85.9781 103.31C85.8954 103.793 85.7979 104.263 85.6871 104.716ZM88.9231 95.0215C89.1669 94.7496 89.4121 94.5295 89.6619 94.3595C89.3989 94.5561 89.1521 94.7821 88.9231 95.0215Z" fill="#000072"/>
<path d="M98.5491 97.9181C100.509 97.3351 102.727 95.4022 103.856 94.3244C102.974 95.2348 102.119 96.1736 101.081 96.8926C100.34 97.4083 99.4461 97.788 98.5491 97.9181ZM95.7911 97.3082C95.3232 96.9554 94.9615 96.477 94.6191 95.9793C95.0048 96.3799 95.3965 96.8268 95.7911 97.3082ZM111.629 92.2839C111.282 91.9685 110.88 91.7129 110.424 91.5485C110.834 91.5664 111.205 91.7742 111.543 92.1195C111.572 92.1748 111.601 92.2286 111.629 92.2839Z" fill="#000072"/>
<path d="M114.197 100.206C114.028 99.5161 113.924 98.8048 113.826 98.0919C113.976 98.8382 114.1 99.5612 114.197 100.206Z" fill="#000072"/>
<path d="M160.226 180.509C160.227 180.509 160.226 180.509 160.227 180.508C160.518 180.395 160.808 180.277 161.096 180.153C163.334 179.187 165.551 178.652 167.65 178.48C165.551 178.652 163.334 179.189 161.096 180.153C160.808 180.279 160.518 180.397 160.226 180.509Z" fill="#FEDFEF"/>
<path d="M158.979 180.949C159.4 180.815 159.815 180.667 160.227 180.508C160.226 180.508 160.227 180.508 160.226 180.51C159.815 180.669 159.398 180.816 158.979 180.949Z" fill="#9999C7"/>
<path d="M114.064 148.694C113.949 151.378 112.574 153.373 110.592 154.656C107.248 156.837 102.182 156.997 98.6197 155.094C96.4762 153.953 94.8779 152.056 94.5229 149.403C97.2974 149.597 100.741 148.623 103.047 146.728C103.71 146.186 104.671 146.151 105.373 146.644C107.811 148.366 111.31 149.085 114.064 148.694Z" fill="#000072"/>
<path d="M67.0248 128.955C67.2867 128.481 67.5951 128.035 67.923 127.6C68.26 127.177 68.6579 126.805 69.0584 126.431C69.2515 126.232 69.4809 126.082 69.7065 125.919C69.9294 125.753 70.164 125.605 70.396 125.448C70.6215 125.28 70.8846 125.172 71.1374 125.044C71.3901 124.915 71.6519 124.805 71.9124 124.687C72.1665 124.558 72.4555 124.502 72.7277 124.414C73.005 124.334 73.2824 124.252 73.5637 124.186C74.1352 124.094 74.7146 124.011 75.2926 123.982C76.4526 123.949 77.6165 124.048 78.713 124.323C80.9229 124.853 82.8657 125.91 84.5299 127.172C86.1967 128.442 87.6237 129.92 88.8161 131.563C89.0455 131.881 88.9755 132.323 88.6593 132.553C88.4299 132.719 88.137 132.728 87.9037 132.603L87.8933 132.596C86.1591 131.65 84.5079 130.695 82.8463 129.915C81.1873 129.134 79.527 128.529 77.9043 128.263C77.0929 128.109 76.2919 128.1 75.5 128.119C75.3017 128.119 75.106 128.167 74.9103 128.187C74.7146 128.211 74.515 128.222 74.3193 128.249C73.9304 128.346 73.5325 128.39 73.1346 128.48C72.7445 128.604 72.3272 128.655 71.9228 128.789C71.5197 128.929 71.0881 129.012 70.6656 129.164C70.2482 129.325 69.792 129.434 69.3436 129.589C68.8951 129.75 68.4272 129.899 67.914 130.018L67.8427 130.035C67.4435 130.128 67.0469 129.881 66.9536 129.482C66.9095 129.296 66.9406 129.11 67.0248 128.955Z" fill="#000072"/>
<path d="M139.201 127.433C138.68 127.352 138.204 127.236 137.744 127.109C137.286 126.986 136.823 126.911 136.395 126.781C135.963 126.659 135.525 126.608 135.114 126.497C134.699 126.393 134.282 126.373 133.883 126.277C133.48 126.217 133.079 126.201 132.685 126.132C132.487 126.12 132.288 126.124 132.091 126.113C131.893 126.108 131.695 126.074 131.498 126.088C130.706 126.128 129.909 126.194 129.11 126.407C127.51 126.789 125.899 127.513 124.301 128.412C122.7 129.31 121.123 130.382 119.46 131.451L119.452 131.458C119.122 131.67 118.684 131.574 118.472 131.246C118.32 131.008 118.327 130.713 118.465 130.488C119.536 128.763 120.852 127.187 122.422 125.798C123.991 124.419 125.852 123.224 128.017 122.535C129.092 122.181 130.245 121.999 131.403 121.947C131.983 121.934 132.567 121.976 133.143 122.025C133.428 122.07 133.713 122.133 133.994 122.193C134.273 122.261 134.563 122.295 134.828 122.406C135.095 122.504 135.364 122.595 135.626 122.706C135.887 122.815 136.156 122.904 136.395 123.054C136.637 123.194 136.882 123.325 137.116 123.474C137.353 123.62 137.594 123.755 137.801 123.938C138.226 124.282 138.65 124.625 139.017 125.022C139.375 125.431 139.714 125.854 140.01 126.31C140.233 126.653 140.136 127.112 139.793 127.335C139.633 127.438 139.449 127.473 139.274 127.445L139.201 127.433Z" fill="#000072"/>
<path d="M110.902 136.058C110.113 139.561 107.697 141.234 104.019 141.468L104.02 141.473C100.333 141.501 97.8025 140.007 96.7633 136.572C96.2742 134.939 97.5082 133.295 99.2054 133.235L108.222 132.907C109.921 132.846 111.27 134.395 110.902 136.058Z" fill="#000072"/>
<path d="M90.8614 144.358C90.7928 145.058 90.8046 145.727 91.0068 146.241C91.2125 146.753 91.5152 147.128 91.9833 147.393C92.9007 147.951 94.2721 148.094 95.6069 147.999C96.9523 147.901 98.326 147.603 99.6017 147.098C100.239 146.848 100.856 146.55 101.418 146.184C101.554 146.089 101.697 146.001 101.829 145.903L102.29 145.554C102.832 145.156 103.484 144.938 104.14 144.913C104.796 144.886 105.464 145.056 106.033 145.412L106.521 145.729C106.662 145.818 106.81 145.896 106.953 145.98C107.539 146.303 108.175 146.556 108.83 146.76C110.138 147.171 111.529 147.369 112.881 147.372C114.218 147.37 115.576 147.128 116.452 146.506C116.9 146.209 117.174 145.814 117.342 145.291C117.507 144.762 117.47 144.094 117.352 143.401L117.346 143.366C117.281 142.985 117.537 142.625 117.917 142.56C118.221 142.508 118.513 142.661 118.65 142.918C119.051 143.665 119.356 144.55 119.301 145.555C119.256 146.552 118.767 147.609 118.029 148.3C117.294 148.998 116.433 149.451 115.574 149.731C114.712 150.021 113.838 150.161 112.976 150.21C111.249 150.304 109.553 150.029 107.935 149.489C107.128 149.212 106.34 148.861 105.583 148.432C105.397 148.318 105.207 148.212 105.023 148.092L104.547 147.773C104.465 147.718 104.358 147.683 104.244 147.683C104.131 147.688 104.026 147.734 103.948 147.795L103.494 148.149C103.32 148.283 103.138 148.402 102.959 148.527C102.235 149.009 101.476 149.418 100.691 149.751C99.1181 150.41 97.4453 150.807 95.7157 150.836C94.8491 150.851 93.9718 150.773 93.0899 150.546C92.2103 150.327 91.3201 149.937 90.5374 149.292C89.7524 148.655 89.1909 147.636 89.0738 146.647C88.9462 145.649 89.1861 144.744 89.5314 143.969C89.6886 143.616 90.1012 143.459 90.4535 143.616C90.7349 143.742 90.8933 144.03 90.8649 144.321L90.8614 144.358Z" fill="#000072"/>
<path d="M160.945 92.4338C160.945 92.4338 153.147 91.4828 145.973 98.6093C144.736 99.8399 144.5 101.755 145.433 103.228L154.007 116.76C154.72 117.888 156.395 117.804 156.992 116.612C160.767 109.064 162.518 101.096 160.945 92.4338Z" fill="#FFC1CC"/>
<path d="M38.6018 100.112C38.6018 100.112 46.1888 98.1048 54.2518 103.664C55.6424 104.623 56.135 106.361 55.4103 107.86L48.7564 121.624C48.2026 122.77 46.5342 122.936 45.7823 121.917C41.0266 115.479 38.2162 108.356 38.6018 100.112Z" fill="#FFC1CC"/>
<path d="M110.574 154.161C107.229 156.343 102.162 156.503 98.6006 154.6C101.179 150.145 108.644 150.259 110.574 154.161Z" fill="white"/>
<path d="M105.376 140.631L105.579 146.249C105.607 147.012 105.009 147.655 104.245 147.683C103.48 147.711 102.838 147.113 102.811 146.349L102.606 140.732C102.579 139.968 103.176 139.326 103.941 139.297C104.705 139.269 105.347 139.867 105.376 140.631Z" fill="#000072"/>
<path d="M104.231 157.801C99.2983 157.801 93.9049 155.295 93.1482 149.582C93.0475 148.824 93.581 148.128 94.3389 148.027C95.0933 147.929 95.7934 148.46 95.894 149.218C96.4552 153.455 100.893 155.195 104.76 155.021C108.577 154.847 112.507 152.805 112.678 148.634C112.709 147.871 113.363 147.278 114.119 147.307C114.884 147.34 115.477 147.984 115.446 148.748C115.204 154.64 109.803 157.564 104.885 157.787C104.669 157.798 104.45 157.801 104.231 157.801Z" fill="#000072"/>
<path d="M99.1306 161.336C100.152 161.616 101.093 161.894 102.024 162.064C102.952 162.236 103.855 162.321 104.759 162.286C105.663 162.25 106.568 162.098 107.49 161.852C108.417 161.617 109.346 161.267 110.346 160.921L110.364 160.915C110.738 160.786 111.144 160.984 111.272 161.357C111.359 161.608 111.297 161.874 111.135 162.059C110.379 162.922 109.433 163.616 108.37 164.145C107.305 164.665 106.106 164.991 104.878 165.05C103.651 165.113 102.414 164.892 101.304 164.448C100.193 163.999 99.1962 163.351 98.4017 162.513C98.13 162.227 98.1413 161.774 98.4288 161.501C98.6167 161.324 98.8759 161.267 99.1091 161.329L99.1306 161.336Z" fill="#000072"/>
<path d="M67.7942 149.984C66.7208 149.979 65.6706 149.865 64.6297 149.718C63.5865 149.575 62.5572 149.377 61.5337 149.15C60.5102 148.923 59.4948 148.661 58.4933 148.339C57.4884 148.025 56.495 147.667 55.5272 147.195C55.2337 147.051 55.1118 146.696 55.2545 146.403C55.3567 146.194 55.5655 146.071 55.7837 146.069C56.8606 146.061 57.9108 146.168 58.9517 146.32C59.9938 146.463 61.0231 146.666 62.0443 146.903C63.0654 147.141 64.0797 147.409 65.0811 147.731C66.0849 148.047 67.0794 148.4 68.0495 148.858C68.3454 148.998 68.4719 149.351 68.3315 149.646C68.2305 149.861 68.017 149.985 67.7942 149.984Z" fill="#000072"/>
<path d="M68.3304 155.146C67.4256 155.786 66.4763 156.317 65.5081 156.806C64.5444 157.302 63.5573 157.741 62.5558 158.147C61.5542 158.552 60.5427 158.932 59.5078 159.257C58.4763 159.589 57.4302 159.888 56.3442 160.085C56.023 160.144 55.7151 159.93 55.6573 159.61C55.615 159.375 55.7195 159.146 55.9041 159.019C56.8144 158.392 57.7671 157.868 58.733 157.376C59.6957 156.879 60.6816 156.434 61.6776 156.017C62.6758 155.6 63.6851 155.215 64.7189 154.888C65.7493 154.554 66.7975 154.261 67.8902 154.079C68.2126 154.025 68.5172 154.242 68.5716 154.565C68.6105 154.797 68.5083 155.019 68.3304 155.146Z" fill="#000072"/>
<path d="M69.3289 161.78C68.8688 162.717 68.2912 163.55 67.6964 164.369C67.0919 165.177 66.4436 165.948 65.7643 166.691C65.4262 167.065 65.0818 167.432 64.7277 167.791C64.38 168.157 64.0205 168.511 63.6547 168.86C62.9218 169.555 62.1698 170.235 61.3417 170.847C61.0796 171.042 60.7106 170.988 60.5159 170.725C60.3736 170.533 60.3661 170.281 60.4752 170.086C60.9791 169.187 61.5589 168.355 62.1559 167.54C62.4565 167.133 62.7614 166.731 63.0812 166.341C63.3925 165.944 63.7135 165.556 64.0408 165.174C64.6934 164.406 65.376 163.666 66.1013 162.964C66.8384 162.27 67.5915 161.593 68.4634 161.017C68.7383 160.835 69.1096 160.91 69.2914 161.186C69.4123 161.37 69.4187 161.596 69.3289 161.78Z" fill="#000072"/>
<path d="M140.43 146.232C141.364 145.704 142.332 145.28 143.309 144.892C144.286 144.497 145.277 144.159 146.278 143.846C147.28 143.537 148.29 143.259 149.32 143.041C150.347 142.815 151.388 142.632 152.463 142.561C152.789 142.54 153.071 142.789 153.093 143.115C153.108 143.347 152.987 143.556 152.8 143.666C151.869 144.207 150.904 144.636 149.924 145.022C148.95 145.415 147.956 145.751 146.951 146.052C145.948 146.352 144.934 146.624 143.904 146.842C142.876 147.065 141.838 147.253 140.768 147.336C140.441 147.362 140.157 147.118 140.132 146.793C140.114 146.556 140.237 146.342 140.43 146.232Z" fill="#000072"/>
<path d="M140.968 151.427C142.071 151.531 143.137 151.747 144.19 152.006C145.243 152.256 146.278 152.568 147.302 152.91C148.328 153.255 149.342 153.627 150.34 154.054C151.339 154.474 152.327 154.928 153.28 155.486C153.562 155.65 153.655 156.013 153.491 156.294C153.37 156.5 153.142 156.606 152.918 156.582C151.82 156.464 150.756 156.243 149.702 155.985C148.648 155.736 147.61 155.431 146.582 155.099C145.555 154.765 144.538 154.4 143.54 153.975C142.54 153.557 141.555 153.097 140.606 152.523C140.326 152.355 140.236 151.991 140.406 151.711C140.527 151.511 140.748 151.408 140.968 151.427Z" fill="#000072"/>
<path d="M140.897 158.389C141.808 158.899 142.609 159.521 143.395 160.158C144.169 160.808 144.903 161.497 145.61 162.214C145.965 162.573 146.313 162.936 146.652 163.309C146.999 163.674 147.332 164.054 147.66 164.437C148.317 165.208 148.954 165.996 149.522 166.854C149.702 167.126 149.626 167.493 149.354 167.672C149.155 167.804 148.903 167.799 148.713 167.679C147.842 167.128 147.044 166.504 146.262 165.863C145.872 165.542 145.487 165.214 145.115 164.875C144.736 164.542 144.366 164.201 144.001 163.853C143.271 163.162 142.568 162.439 141.906 161.676C141.253 160.903 140.617 160.113 140.09 159.212C139.923 158.928 140.018 158.561 140.304 158.395C140.493 158.284 140.72 158.289 140.897 158.389Z" fill="#000072"/>
<rect x="53.6267" y="180.546" width="104.038" height="3.35608" rx="1.11869" fill="#000072"/>
</svg>
